<svg xmlns="http://www.w3.org/2000/svg" viewBox="0 0 512 512">
  <defs>
    <linearGradient id="g" x1="0%" y1="0%" x2="100%" y2="100%">
      <stop offset="0%" stop-color="#FFD700"/>
      <stop offset="100%" stop-color="#FFA500"/>
    </linearGradient>
  </defs>
  <circle cx="256" cy="256" r="215" fill="none" stroke="url(#g)" stroke-width="4" opacity="0.85"/>
  <circle cx="256" cy="256" r="155" fill="none" stroke="url(#g)" stroke-width="2" opacity="0.4"/>
  <circle cx="256" cy="256" r="215" fill="none" stroke="#FFD700" stroke-width="1" opacity="0.08" transform="scale(1.06) translate(-15,-15)"/>
  <circle cx="256" cy="256" r="215" fill="none" stroke="#FFD700" stroke-width="1" opacity="0.05" transform="scale(1.12) translate(-30,-30)"/>
  <polygon points="256,170 270,230 330,230 280,265 295,325 256,290 217,325 232,265 182,230 242,230" fill="url(#g)" opacity="0.8"/>
  <line x1="196" y1="256" x2="316" y2="256" stroke="#FFD700" stroke-width="2" opacity="0.5"/>
  <line x1="256" y1="196" x2="256" y2="316" stroke="#FFD700" stroke-width="2" opacity="0.5"/>
  <polygon points="256,228 270,256 256,284 242,256" fill="url(#g)" opacity="0.7"/>
  <circle cx="256" cy="256" r="6" fill="#FFD700" opacity="0.8"/>
  <circle cx="256" cy="300" r="4" fill="#FFD700" opacity="0.3"/>
  <circle cx="300" cy="256" r="4" fill="#FFD700" opacity="0.3"/>
  <circle cx="256" cy="212" r="4" fill="#FFD700" opacity="0.3"/>
  <circle cx="212" cy="256" r="4" fill="#FFD700" opacity="0.3"/>
</svg>